<svg width="17" height="16" viewBox="0 0 17 16" fill="none" xmlns="http://www.w3.org/2000/svg">
<path d="M15.5667 16C13.6556 16 11.7927 15.5739 9.97822 14.7218C8.1637 13.8696 6.5563 12.7437 5.156 11.344C3.7557 9.9443 2.62978 8.33689 1.77822 6.52178C0.926667 4.70667 0.500593 2.84385 0.5 0.933334C0.5 0.666667 0.588889 0.444444 0.766667 0.266667C0.944444 0.0888888 1.16667 0 1.43333 0H5.03333C5.24074 0 5.42593 0.0666666 5.58889 0.2C5.75185 0.333333 5.84815 0.503704 5.87778 0.711111L6.45556 3.82222C6.48519 4.02963 6.48133 4.21867 6.444 4.38933C6.40667 4.56 6.32163 4.7117 6.18889 4.84444L4.05556 7.02222C4.67778 8.08889 5.45556 9.08889 6.38889 10.0222C7.32222 10.9556 8.35185 11.763 9.47778 12.4444L11.5667 10.3556C11.7 10.2222 11.8742 10.1224 12.0893 10.056C12.3044 9.98963 12.5154 9.97096 12.7222 10L15.7889 10.6222C15.9963 10.6667 16.1667 10.7668 16.3 10.9227C16.4333 11.0785 16.5 11.2599 16.5 11.4667V15.0667C16.5 15.3333 16.4111 15.5556 16.2333 15.7333C16.0556 15.9111 15.8333 16 15.5667 16Z" fill="#3167D9"/>
</svg>
